<svg width="48" height="48" fill="none" xmlns="http://www.w3.org/2000/svg">
    <g clip-path="url(#a)">
        <mask id="b" style="mask-type:luminance" maskUnits="userSpaceOnUse" x="0" y="0" width="48" height="48">
            <path d="M48 0H0v48h48V0Z" fill="#fff"/>
        </mask>
        <g mask="url(#b)">
            <path d="M16.055 38.65c0 .198-.223.357-.503.357-.32.03-.542-.13-.542-.357 0-.199.222-.358.503-.358.29-.03.542.13.542.358Zm-3.01-.447c-.068.198.126.427.416.486.252.1.542 0 .6-.198.058-.199-.126-.427-.416-.516-.252-.07-.532.03-.6.228Zm4.278-.169c-.281.07-.475.258-.446.487.03.198.281.327.571.258.281-.07.475-.258.445-.457-.029-.189-.29-.318-.57-.288ZM23.69 0C10.268 0 0 10.451 0 24.218 0 35.225 6.755 44.644 16.403 47.96c1.239.228 1.674-.556 1.674-1.201 0-.616-.029-4.01-.029-6.095 0 0-6.774 1.49-8.196-2.957 0 0-1.104-2.889-2.69-3.633 0 0-2.217-1.558.154-1.529 0 0 2.41.199 3.736 2.561 2.119 3.831 5.67 2.73 7.055 2.075.222-1.588.851-2.69 1.548-3.345-5.41-.616-10.868-1.42-10.868-10.968 0-2.73.736-4.1 2.284-5.846-.252-.645-1.074-3.305.252-6.74 2.022-.644 6.677 2.68 6.677 2.68a22.206 22.206 0 0 1 6.077-.843c2.062 0 4.142.288 6.078.844 0 0 4.655-3.335 6.677-2.68 1.326 3.444.503 6.094.252 6.74 1.548 1.756 2.497 3.126 2.497 5.845 0 9.578-5.7 10.342-11.11 10.968.89.784 1.645 2.273 1.645 4.605 0 3.345-.029 7.484-.029 8.298 0 .645.445 1.429 1.674 1.2C41.44 44.645 48 35.226 48 24.219 48 10.451 37.113 0 23.69 0ZM9.406 34.233c-.125.099-.096.327.068.516.155.159.378.228.503.099.126-.1.097-.327-.067-.516-.155-.159-.378-.228-.504-.1Zm-1.045-.804c-.067.129.03.288.223.387.155.1.348.07.416-.07.068-.129-.029-.287-.223-.387-.193-.06-.348-.03-.416.07Zm3.136 3.533c-.155.13-.097.427.126.616.222.228.503.258.629.099.125-.13.067-.427-.126-.616-.213-.228-.503-.258-.63-.099Zm-1.104-1.459c-.154.1-.154.357 0 .586.155.228.417.327.542.228.155-.129.155-.387 0-.615-.135-.229-.387-.328-.542-.199Z" fill="#000"/>
        </g>
    </g>
    <defs>
        <clipPath id="a">
            <path fill="#fff" d="M0 0h48v48H0z"/>
        </clipPath>
    </defs>
</svg>
