<svg width="96" height="48" viewBox="0 0 96 48" fill="none" xmlns="http://www.w3.org/2000/svg">
<path d="M72 48C58.7452 48 48 37.2548 48 24C48 10.7452 58.7452 0 72 0C85.2548 0 96 10.7452 96 24C96 37.2548 85.2548 48 72 48ZM79.9418 33.0326C82.2393 31.0271 83.6892 28.2236 83.9981 25.1894L83.9983 25.185C84.0148 25.0019 83.9032 24.8318 83.7288 24.7743C83.5544 24.7168 83.3633 24.7871 83.2677 24.9441C82.3395 26.5021 80.9578 27.7397 79.3073 28.4913C77.6565 29.2429 75.8159 29.4725 74.0312 29.1496C72.2466 28.8268 70.6029 27.9668 69.3203 26.6846C68.0376 25.4023 67.1771 23.7591 66.8536 21.9746C66.5302 20.1901 66.7593 18.3494 67.5103 16.6985C68.2613 15.0478 69.4984 13.6657 71.0562 12.7369C71.2181 12.6435 71.2924 12.4494 71.2342 12.2718C71.1759 12.0942 71.0011 11.9818 70.8153 12.0024C67.7812 12.3104 64.9772 13.7595 62.9707 16.0564C60.9643 18.3534 59.9053 21.3266 60.0078 24.3748C60.1104 27.4228 61.3668 30.3184 63.5232 32.4754C65.6793 34.6323 68.5744 35.8897 71.6224 35.9931C74.6705 36.0965 77.6442 35.0383 79.9418 33.0326Z" fill="white"/>
<path d="M24 8H46.6183C43.693 12.6308 42 18.1177 42 24C42 29.8823 43.693 35.3692 46.6183 40H24C15.1634 40 8 32.8366 8 24C8 15.1634 15.1634 8 24 8Z" fill="white"/>
</svg>
