<svg width="96" height="48" viewBox="0 0 96 48" fill="none" xmlns="http://www.w3.org/2000/svg">
<path d="M24 48C37.2548 48 48 37.2548 48 24C48 10.7452 37.2548 0 24 0C10.7452 0 0 10.7452 0 24C0 37.2548 10.7452 48 24 48ZM25.6355 13.2941C25.6355 14.2382 24.8936 14.98 23.9832 14.98C23.0727 14.98 22.3308 14.2382 22.3308 13.3276V9.65234C22.3308 8.74182 23.0727 8 23.9832 8C24.8936 8 25.6355 8.74182 25.6355 9.65234V13.2941ZM23.9832 17.1044C27.7935 17.1044 30.8957 20.2065 30.8957 24.0168C30.8957 27.8271 27.7935 30.9293 23.9832 30.9293C20.1729 30.9293 17.0706 27.8271 17.0706 24.0168C17.0706 20.2065 20.1729 17.1044 23.9832 17.1044ZM35.3127 15.0474L32.7165 17.6438C32.3792 17.9811 31.9747 18.1158 31.5362 18.1158C31.0977 18.1158 30.6932 17.9473 30.3559 17.6438C29.7152 17.0031 29.7152 15.9242 30.3559 15.2836L32.9524 12.687C33.5931 12.0464 34.672 12.0464 35.3127 12.687C35.9534 13.3278 35.9534 14.4067 35.3127 15.0474ZM34.706 25.6692C33.7618 25.6692 33.02 24.9274 33.02 24.0168C33.02 23.1063 33.7618 22.3645 34.6723 22.3645H38.3477C39.2582 22.3645 40 23.1063 40 24.0168C40 24.9274 39.2582 25.6692 38.3477 25.6692H34.706ZM30.3559 30.3898C31.0305 29.7491 32.0758 29.7491 32.7165 30.3898L35.313 32.9863C35.9537 33.627 35.9537 34.7059 35.313 35.3466C34.9757 35.6838 34.5712 35.8186 34.1327 35.8186C33.6942 35.8186 33.2897 35.65 32.9524 35.3466L30.3559 32.7501C29.7152 32.1094 29.7152 31.0305 30.3559 30.3898ZM22.3308 34.7059C22.3308 33.7955 23.0727 33.0537 23.9832 33.0537C24.8936 33.0537 25.6355 33.7955 25.6355 34.7059V38.3477C25.6355 39.2582 24.8936 40 23.9832 40C23.0727 40 22.3308 39.2582 22.3308 38.3477V34.7059ZM12.653 32.9863L15.2498 30.3898C15.8905 29.7491 16.9695 29.7491 17.6101 30.3898C18.2508 31.0305 18.2509 32.1095 17.6101 32.7501L15.0136 35.3466C14.6764 35.6838 14.2718 35.8186 13.8333 35.8186C13.3949 35.8186 12.9904 35.65 12.653 35.3466C12.0123 34.7058 12.0123 33.627 12.653 32.9863ZM8 24.0168C8 23.1064 8.70819 22.3646 9.61868 22.3646H13.294C14.2045 22.3646 14.9464 23.1064 14.9464 24.0168C14.9464 24.9274 14.2045 25.6692 13.294 25.6692H9.65234C8.74185 25.6692 8 24.9274 8 24.0168ZM17.61 17.6438C17.2729 17.9473 16.8347 18.116 16.4299 18.116C15.9915 18.1158 15.587 17.9473 15.2497 17.6438L12.6532 15.0474C12.0125 14.4066 12.0125 13.3278 12.6532 12.6871C13.294 12.0464 14.3729 12.0464 15.0135 12.6871L17.61 15.2836C18.2507 15.9243 18.2507 17.0032 17.61 17.6438Z" fill="white"/>
<path d="M54 24C54 29.8823 52.307 35.3692 49.3818 40H72C80.8366 40 88 32.8366 88 24C88 15.1634 80.8366 8 72 8H49.3818C52.307 12.6308 54 18.1177 54 24Z" fill="white"/>
</svg>
