<svg width="96" height="48" viewBox="0 0 96 48" fill="none" xmlns="http://www.w3.org/2000/svg">
<path fill-rule="evenodd" clip-rule="evenodd" d="M48 24C48 37.2548 58.7452 48 72 48C85.2548 48 96 37.2548 96 24C96 10.7452 85.2548 0 72 0C58.7452 0 48 10.7452 48 24ZM83.9981 25.1894C83.6892 28.2236 82.2393 31.0271 79.9418 33.0326C77.6442 35.0383 74.6705 36.0965 71.6224 35.9931C68.5744 35.8897 65.6793 34.6323 63.5232 32.4754C61.3668 30.3184 60.1104 27.4228 60.0078 24.3748C59.9053 21.3266 60.9643 18.3534 62.9707 16.0564C64.9772 13.7595 67.7812 12.3104 70.8153 12.0024C71.0011 11.9818 71.1759 12.0942 71.2342 12.2718C71.2924 12.4494 71.2181 12.6435 71.0562 12.7369C69.4984 13.6657 68.2613 15.0478 67.5103 16.6985C66.7593 18.3494 66.5302 20.1901 66.8536 21.9746C67.1771 23.7591 68.0376 25.4023 69.3203 26.6846C70.6029 27.9668 72.2466 28.8268 74.0312 29.1496C75.8159 29.4725 77.6565 29.2429 79.3073 28.4913C80.9578 27.7397 82.3395 26.5021 83.2677 24.9441C83.3633 24.7871 83.5544 24.7168 83.7288 24.7743C83.9032 24.8318 84.0148 25.0019 83.9983 25.185L83.9981 25.1894Z" fill="#AA80FF"/>
<path d="M44 24C44 29.949 45.8553 35.4647 49.0188 40H24C15.1634 40 7.99998 32.8366 7.99998 24C7.99998 15.1634 15.1634 8 24 8H49.0188C45.8553 12.5353 44 18.051 44 24Z" fill="#AA80FF"/>
</svg>
