<svg width="48" height="48" viewBox="0 0 48 48" fill="none" xmlns="http://www.w3.org/2000/svg">
<g clip-path="url(#clip0_90_2)">
<mask id="mask0_90_2" style="mask-type:luminance" maskUnits="userSpaceOnUse" x="0" y="0" width="48" height="48">
<path d="M48 0H0V48H48V0Z" fill="white"/>
</mask>
<g mask="url(#mask0_90_2)">
<path d="M16.0548 38.6496C16.0548 38.848 15.8323 39.0068 15.5516 39.0068C15.2323 39.0366 15.0097 38.8778 15.0097 38.6496C15.0097 38.451 15.2323 38.2922 15.5129 38.2922C15.8032 38.2624 16.0548 38.4212 16.0548 38.6496ZM13.0452 38.2028C12.9774 38.4014 13.171 38.6296 13.4613 38.6892C13.7129 38.7884 14.0032 38.6892 14.0613 38.4908C14.1194 38.2922 13.9355 38.064 13.6452 37.9746C13.3935 37.9052 13.1129 38.0044 13.0452 38.2028ZM17.3226 38.0342C17.0419 38.1036 16.8484 38.2922 16.8774 38.5206C16.9065 38.719 17.1581 38.848 17.4484 38.7786C17.729 38.709 17.9226 38.5206 17.8935 38.322C17.8645 38.1334 17.6032 38.0044 17.3226 38.0342ZM23.6904 0C10.2677 0 0 10.4515 0 24.218C0 35.2252 6.75484 44.6444 16.4032 47.9596C17.6419 48.1878 18.0774 47.4038 18.0774 46.7586C18.0774 46.1432 18.0484 42.7488 18.0484 40.6644C18.0484 40.6644 11.2742 42.1532 9.85162 37.7066C9.85162 37.7066 8.74838 34.8184 7.1613 34.074C7.1613 34.074 4.94516 32.5156 7.31612 32.5454C7.31612 32.5454 9.7258 32.744 11.0516 35.1062C13.171 38.9374 16.7226 37.8356 18.1065 37.1806C18.329 35.5926 18.9581 34.4908 19.6548 33.8358C14.2452 33.2204 8.7871 32.4164 8.7871 22.8682C8.7871 20.1386 9.52258 18.7689 11.071 17.0221C10.8194 16.3769 9.99678 13.7169 11.3226 10.2827C13.3452 9.63756 18 12.9626 18 12.9626C19.9355 12.4068 22.0162 12.1189 24.0774 12.1189C26.1388 12.1189 28.2194 12.4068 30.1548 12.9626C30.1548 12.9626 34.8096 9.62764 36.8322 10.2827C38.158 13.7268 37.3354 16.3769 37.0838 17.0221C38.6322 18.7789 39.5806 20.1486 39.5806 22.8682C39.5806 32.4462 33.8806 33.2104 28.471 33.8358C29.3612 34.6198 30.1162 36.1086 30.1162 38.441C30.1162 41.786 30.087 45.9248 30.087 46.7388C30.087 47.3838 30.5322 48.168 31.7612 47.9398C41.4388 44.6444 48 35.2252 48 24.218C48 10.4515 37.113 0 23.6904 0ZM9.40646 34.2328C9.28064 34.332 9.30968 34.5602 9.4742 34.7488C9.62904 34.9076 9.85162 34.9772 9.97742 34.848C10.1032 34.7488 10.0742 34.5206 9.90968 34.332C9.75484 34.1732 9.53226 34.1036 9.40646 34.2328ZM8.3613 33.4288C8.29354 33.5578 8.39032 33.7166 8.58388 33.8158C8.7387 33.9152 8.93226 33.8854 9 33.7464C9.06774 33.6174 8.97096 33.4586 8.77742 33.3592C8.58388 33.2998 8.42904 33.3296 8.3613 33.4288ZM11.4968 36.9622C11.3419 37.0912 11.4 37.389 11.6226 37.5776C11.8452 37.8058 12.1258 37.8356 12.2516 37.6768C12.3774 37.5478 12.3194 37.25 12.1258 37.0614C11.9129 36.8332 11.6226 36.8034 11.4968 36.9622ZM10.3935 35.5032C10.2387 35.6024 10.2387 35.8604 10.3935 36.0888C10.5484 36.317 10.8097 36.4164 10.9355 36.317C11.0903 36.188 11.0903 35.93 10.9355 35.7016C10.8 35.4734 10.5484 35.3742 10.3935 35.5032Z" fill="black"/>
</g>
</g>
<defs>
<clipPath id="clip0_90_2">
<rect width="48" height="48" fill="white"/>
</clipPath>
</defs>
</svg>
