<svg width="64" height="64" viewBox="0 0 64 64" fill="none" xmlns="http://www.w3.org/2000/svg">
<g clip-path="url(#clip0_104_8)">
<circle cx="32" cy="32" r="32" fill="#1E1E2E"/>
<path d="M12.34 30.72V25.8H32.4V30.72H12.34ZM12.34 39.16V34.24H32.4V39.16H12.34ZM31.5844 30.72V25.8H44.8844V30.72H31.5844ZM31.5844 39.16V34.24H44.8844V39.16H31.5844ZM39.9444 19.04L52.0444 32.48L39.9444 45.92L35.8044 42.36L37.2644 40.78C37.5044 40.4867 37.7644 40.2067 38.0444 39.94C38.3377 39.66 38.6977 39.3933 39.1244 39.14L43.2644 34.22L44.8844 32.48L43.2644 30.74L39.1244 25.82C38.6977 25.5533 38.3377 25.2867 38.0444 25.02C37.7644 24.7533 37.5044 24.4733 37.2644 24.18L35.8044 22.6L39.9444 19.04Z" fill="#A6E3A1"/>
</g>
<defs>
<clipPath id="clip0_104_8">
<rect width="64" height="64" fill="white"/>
</clipPath>
</defs>
</svg>
