<svg width="64" height="64" viewBox="0 0 64 64" fill="none" xmlns="http://www.w3.org/2000/svg">
<g clip-path="url(#clip0_104_8)">
<circle cx="32" cy="32" r="32" fill="#1E1E2E"/>
<path d="M12.08 31.76L23.12 36.96C23.1733 37.12 23.2 37.2933 23.2 37.48C23.2 37.6667 23.2 37.84 23.2 38C23.2 38.8267 23 39.5467 22.6 40.16C22.2267 40.7733 21.5333 41.08 20.52 41.08C20.04 41.08 19.5733 40.9867 19.12 40.8C18.6667 40.5867 18.0933 40.2933 17.4 39.92L7.32 34.72C6.73333 33.9467 6.44 32.9333 6.44 31.68C6.44 30.72 6.57333 29.9867 6.84 29.48C7.13333 28.9467 7.53333 28.5333 8.04 28.24L20.32 22.04C21.4133 22.3333 22.16 22.7467 22.56 23.28C22.9867 23.7867 23.2 24.3467 23.2 24.96C23.2 25.76 22.9867 26.4 22.56 26.88C22.1333 27.3333 21.5333 27.76 20.76 28.16L12.08 31.76ZM36.7331 20.96L29.6131 47.24C29.2665 47.2933 28.9465 47.32 28.6531 47.32C28.3598 47.3467 28.0798 47.36 27.8131 47.36C26.8531 47.36 26.1065 47.1467 25.5731 46.72C25.0398 46.2933 24.7731 45.6133 24.7731 44.68C24.7731 44.0667 24.8665 43.44 25.0531 42.8C25.2398 42.1333 25.3998 41.56 25.5331 41.08L32.6531 14.8C32.9998 14.7467 33.3331 14.72 33.6531 14.72C33.9731 14.6933 34.2531 14.68 34.4931 14.68C35.3998 14.68 36.1198 14.88 36.6531 15.28C37.2131 15.68 37.4931 16.3333 37.4931 17.24C37.4931 17.88 37.3998 18.5067 37.2131 19.12C37.0531 19.7333 36.8931 20.3467 36.7331 20.96ZM50.0925 31.36L39.1325 26.24C39.1058 26.1067 39.0792 25.9467 39.0525 25.76C39.0258 25.5467 39.0125 25.36 39.0125 25.2C39.0125 24.4 39.2125 23.6933 39.6125 23.08C40.0392 22.4667 40.7458 22.16 41.7325 22.16C42.2125 22.16 42.7058 22.2667 43.2125 22.48C43.7458 22.6933 44.2925 22.9467 44.8525 23.24L54.8525 28.4C55.4392 29.1733 55.7325 30.1867 55.7325 31.44C55.7325 32.4 55.5858 33.1467 55.2925 33.68C55.0258 34.1867 54.6392 34.5867 54.1325 34.88L42.0525 41.08C40.9592 40.7867 40.1992 40.3867 39.7725 39.88C39.3725 39.3467 39.1725 38.7733 39.1725 38.16C39.1725 37.36 39.3858 36.72 39.8125 36.24C40.2392 35.76 40.8392 35.3333 41.6125 34.96L50.0925 31.36Z" fill="#A6E3A1"/>
</g>
<defs>
<clipPath id="clip0_104_8">
<rect width="64" height="64" fill="white"/>
</clipPath>
</defs>
</svg>
